<svg xmlns="http://www.w3.org/2000/svg" xmlns:xlink="http://www.w3.org/1999/xlink" width="60px" height="50px" viewBox="0 0 38 44.5"><defs><clipPath id="a"><path d="M23.667,3H5.583A2.591,2.591,0,0,0,3,5.583V23.667A2.591,2.591,0,0,0,5.583,26.25H23.667a2.591,2.591,0,0,0,2.583-2.583V5.583A2.591,2.591,0,0,0,23.667,3ZM12.042,21.083l-6.458-6.21,1.808-1.739,4.65,4.471,9.817-9.439,1.808,1.739L12.042,21.083Z" transform="translate(-3 -3)" fill="#f6ae2d" clip-rule="evenodd"/></clipPath></defs><g transform="translate(-34 -368)"><text transform="translate(34 399.5)" fill="#f26419" font-size="8" font-family="Roboto-Bold, Roboto" font-weight="700" letter-spacing="0.018em"><tspan x="0" y="8">CHOOSED</tspan></text><g transform="translate(38 368)"><rect width="31" height="31" fill="none"/><g transform="translate(3.875 3.875)" clip-path="url(#a)"><g transform="translate(0 0)"><g transform="translate(0 0)"><path d="M23.667,3H5.583A2.591,2.591,0,0,0,3,5.583V23.667A2.591,2.591,0,0,0,5.583,26.25H23.667a2.591,2.591,0,0,0,2.583-2.583V5.583A2.591,2.591,0,0,0,23.667,3ZM12.042,21.083l-6.458-6.21,1.808-1.739,4.65,4.471,9.817-9.439,1.808,1.739L12.042,21.083Z" transform="translate(-3 -3)" fill="#f6ae2d" fill-rule="evenodd"/></g></g></g></g></g></svg>